<svg width="154" height="157" viewBox="0 0 154 157" fill="none" xmlns="http://www.w3.org/2000/svg">
<path d="M5.58129 99.3321L47.5242 134.526C49.7495 136.394 52.8098 136.913 55.5266 135.885L105.042 117.14C106.195 116.704 107.216 115.979 108.009 115.034C109.987 112.677 110.249 109.324 108.66 106.688L107.431 104.648C106.831 103.652 106.07 102.762 105.179 102.015L81.2179 81.9091C80.2914 81.1316 79.2072 80.5645 78.0401 80.2469L77.6725 80.1468C74.7508 79.3517 71.6334 80.3279 69.6871 82.6474C68.8204 83.6803 68.2377 84.9211 67.9963 86.2476L63.5691 110.578C63.102 113.145 61.5355 115.38 59.2815 116.695L58.2846 117.276C55.6265 118.826 52.2813 118.541 49.924 116.563C47.952 114.909 46.9986 112.337 47.4157 109.796L52.2016 80.6427C52.2794 80.1688 52.2976 79.687 52.2557 79.2086C51.9944 76.2215 49.4836 73.9354 46.4851 73.9544L46.2943 73.9556C45.5761 73.9602 44.8647 74.0945 44.1943 74.352L7.07488 88.6091C6.09678 88.9848 5.23026 89.603 4.55677 90.4056C2.36303 93.02 2.70404 96.9178 5.31843 99.1115L5.58129 99.3321Z" fill="black"/>
<path d="M148.084 57.127L106.141 21.9327C103.916 20.0655 100.856 19.5461 98.139 20.5745L48.6238 39.3186C47.4708 39.7551 46.4491 40.4803 45.6566 41.4247C43.6787 43.782 43.4169 47.1356 45.0053 49.7712L46.2348 51.8114C46.835 52.8072 47.5958 53.6969 48.4865 54.4442L72.4477 74.5501C73.3742 75.3275 74.4584 75.8946 75.6254 76.2122L75.993 76.3123C78.9147 77.1074 82.0321 76.1312 83.9784 73.8117C84.8451 72.7788 85.4278 71.538 85.6692 70.2115L90.0964 45.881C90.5636 43.3138 92.13 41.0792 94.384 39.7645L95.3809 39.183C98.039 37.6327 101.384 37.9179 103.742 39.8959C105.714 41.5506 106.667 44.1225 106.25 46.6628L101.464 75.8164C101.386 76.2903 101.368 76.7721 101.41 77.2505C101.671 80.2376 104.182 82.5237 107.18 82.5047L107.371 82.5035C108.089 82.4989 108.801 82.3646 109.471 82.1071L146.591 67.85C147.569 67.4743 148.435 66.8561 149.109 66.0535C151.302 63.4391 150.961 59.5413 148.347 57.3476L148.084 57.127Z" fill="black"/>
</svg>
