<svg xmlns="http://www.w3.org/2000/svg" width="60" height="50" fill="none" viewBox="0 0 60 50"><path fill="#fff" d="M23.6757 4.07209L26.0259 1.63861C27.7112 -0.30816 30.9541 -0.714907 33.0198 1.48669L57.9125 28.0167C59.9639 30.203 59.4289 33.7159 56.8181 35.2026L31.9254 49.378C30.2101 50.3548 28.262 50.1171 26.8574 49.1111L2.34853 35.1543C-0.262213 33.6676 -0.797212 30.1547 1.25415 27.9684C2.19876 26.9617 3.71857 26.7358 4.91886 27.4236L26.8574 39.9535V30.5415L12.5428 22.4183C10.5215 21.2577 10.1103 18.5337 11.6997 16.8359L11.7026 16.8327L11.705 16.8302C12.8599 15.6016 14.7163 15.3264 16.1826 16.1667L26.8574 22.1699V13.0847L23.4614 10.9636C21.3811 9.77136 19.5032 8.51903 21.1404 6.77417L23.6757 4.07209Z"/></svg>